<svg width="33" height="33" viewBox="0 0 33 33" fill="none" xmlns="http://www.w3.org/2000/svg">
<g filter="url(#filter0_d)">
<path fill-rule="evenodd" clip-rule="evenodd" d="M17.3312 20.6224L9.94101 13.2322C9.73474 13.0259 9.63161 12.7818 9.63161 12.4998C9.63161 12.2179 9.73474 11.9737 9.94101 11.7675L17.3312 4.37727C17.5375 4.171 17.7816 4.06787 18.0636 4.06787C18.3455 4.06787 18.5896 4.171 18.7959 4.37727L20.4565 6.03783C20.6627 6.24409 20.7659 6.48821 20.7659 6.77018C20.7659 7.05215 20.6627 7.29627 20.4565 7.50253L15.4592 12.4998L20.4565 17.4971C20.6627 17.7034 20.7659 17.9475 20.7659 18.2295C20.7659 18.5114 20.6627 18.7556 20.4565 18.9618L18.7959 20.6224C18.5896 20.8286 18.3455 20.9318 18.0636 20.9318C17.7816 20.9318 17.5375 20.8286 17.3312 20.6224ZM4 12.5C4 14.7682 4.55873 16.8597 5.67618 18.7745C6.79363 20.6892 8.31008 22.2057 10.2255 23.3238C12.141 24.442 14.2324 25.0007 16.5 25C18.7675 24.9993 20.859 24.4406 22.7745 23.3238C24.6899 22.2071 26.2064 20.6906 27.3238 18.7745C28.4413 16.8584 29 14.7669 29 12.5C29 10.2331 28.4413 8.14165 27.3238 6.22552C26.2064 4.30939 24.6899 2.79294 22.7745 1.67618C20.859 0.559422 18.7675 0.000695149 16.5 6.4665e-07C14.2324 -0.000693856 12.141 0.558033 10.2255 1.67618C8.31008 2.79433 6.79363 4.31078 5.67618 6.22552C4.55873 8.14026 4 10.2318 4 12.5Z" fill="white"/>
</g>
<defs>
<filter id="filter0_d" x="0" y="0" width="33" height="33" filterUnits="userSpaceOnUse" color-interpolation-filters="sRGB">
<feFlood flood-opacity="0" result="BackgroundImageFix"/>
<feColorMatrix in="SourceAlpha" type="matrix" values="0 0 0 0 0 0 0 0 0 0 0 0 0 0 0 0 0 0 127 0"/>
<feOffset dy="4"/>
<feGaussianBlur stdDeviation="2"/>
<feColorMatrix type="matrix" values="0 0 0 0 0 0 0 0 0 0 0 0 0 0 0 0 0 0 0.1 0"/>
<feBlend mode="normal" in2="BackgroundImageFix" result="effect1_dropShadow"/>
<feBlend mode="normal" in="SourceGraphic" in2="effect1_dropShadow" result="shape"/>
</filter>
</defs>
</svg>
