<svg width="33" height="33" viewBox="0 0 33 33" fill="none" xmlns="http://www.w3.org/2000/svg">
<g filter="url(#filter0_d)">
<path fill-rule="evenodd" clip-rule="evenodd" d="M15.6688 20.6224L23.059 13.2322C23.2653 13.0259 23.3684 12.7818 23.3684 12.4998C23.3684 12.2179 23.2653 11.9737 23.059 11.7675L15.6688 4.37727C15.4625 4.171 15.2184 4.06787 14.9364 4.06787C14.6545 4.06787 14.4104 4.171 14.2041 4.37727L12.5435 6.03783C12.3373 6.24409 12.2341 6.48821 12.2341 6.77018C12.2341 7.05215 12.3373 7.29627 12.5435 7.50253L17.5408 12.4998L12.5435 17.4971C12.3373 17.7034 12.2341 17.9475 12.2341 18.2295C12.2341 18.5114 12.3373 18.7556 12.5435 18.9618L14.2041 20.6224C14.4104 20.8286 14.6545 20.9318 14.9364 20.9318C15.2184 20.9318 15.4625 20.8286 15.6688 20.6224ZM29 12.5C29 14.7682 28.4413 16.8597 27.3238 18.7745C26.2064 20.6892 24.6899 22.2057 22.7745 23.3238C20.859 24.442 18.7676 25.0007 16.5 25C14.2325 24.9993 12.141 24.4406 10.2255 23.3238C8.31008 22.2071 6.79364 20.6906 5.67618 18.7745C4.55873 16.8584 4 14.7669 4 12.5C4 10.2331 4.55873 8.14165 5.67618 6.22552C6.79364 4.30939 8.31008 2.79294 10.2255 1.67618C12.141 0.559422 14.2325 0.000695149 16.5 6.4665e-07C18.7676 -0.000693856 20.859 0.558033 22.7745 1.67618C24.6899 2.79433 26.2064 4.31078 27.3238 6.22552C28.4413 8.14026 29 10.2318 29 12.5Z" fill="white"/>
</g>
<defs>
<filter id="filter0_d" x="0" y="0" width="33" height="33" filterUnits="userSpaceOnUse" color-interpolation-filters="sRGB">
<feFlood flood-opacity="0" result="BackgroundImageFix"/>
<feColorMatrix in="SourceAlpha" type="matrix" values="0 0 0 0 0 0 0 0 0 0 0 0 0 0 0 0 0 0 127 0"/>
<feOffset dy="4"/>
<feGaussianBlur stdDeviation="2"/>
<feColorMatrix type="matrix" values="0 0 0 0 0 0 0 0 0 0 0 0 0 0 0 0 0 0 0.1 0"/>
<feBlend mode="normal" in2="BackgroundImageFix" result="effect1_dropShadow"/>
<feBlend mode="normal" in="SourceGraphic" in2="effect1_dropShadow" result="shape"/>
</filter>
</defs>
</svg>
