<svg width="21" height="21" viewBox="0 0 21 21" fill="none" xmlns="http://www.w3.org/2000/svg">
<path d="M12.5098 10.5C12.5098 11.61 11.61 12.5098 10.5 12.5098C9.39001 12.5098 8.49023 11.61 8.49023 10.5C8.49023 9.39001 9.39001 8.49023 10.5 8.49023C11.61 8.49023 12.5098 9.39001 12.5098 10.5Z" fill="white"/>
<path d="M15.2001 6.94413C15.1035 6.68233 14.9494 6.44537 14.7491 6.25087C14.5546 6.0506 14.3178 5.89647 14.0558 5.79986C13.8434 5.71735 13.5242 5.61913 12.9364 5.59238C12.3005 5.56338 12.1098 5.55713 10.5 5.55713C8.88995 5.55713 8.69929 5.56322 8.06355 5.59222C7.47571 5.61913 7.15639 5.71735 6.94411 5.79986C6.68215 5.89647 6.44519 6.0506 6.25085 6.25087C6.05058 6.44537 5.89645 6.68217 5.79967 6.94413C5.71716 7.15658 5.61895 7.47589 5.59219 8.06373C5.56319 8.69947 5.55695 8.89013 5.55695 10.5002C5.55695 12.11 5.56319 12.3007 5.59219 12.9366C5.61895 13.5244 5.71716 13.8436 5.79967 14.056C5.89645 14.318 6.05042 14.5548 6.25069 14.7493C6.44519 14.9495 6.68199 15.1037 6.94395 15.2003C7.15639 15.283 7.47571 15.3812 8.06355 15.4079C8.69929 15.4369 8.88979 15.443 10.4998 15.443C12.11 15.443 12.3007 15.4369 12.9362 15.4079C13.5241 15.3812 13.8434 15.283 14.0558 15.2003C14.5817 14.9975 14.9973 14.5818 15.2001 14.056C15.2826 13.8436 15.3808 13.5244 15.4077 12.9366C15.4367 12.3007 15.4428 12.11 15.4428 10.5002C15.4428 8.89013 15.4367 8.69947 15.4077 8.06373C15.381 7.47589 15.2828 7.15658 15.2001 6.94413ZM10.5 13.596C8.78997 13.596 7.40377 12.21 7.40377 10.5C7.40377 8.78999 8.78997 7.40395 10.5 7.40395C12.2098 7.40395 13.596 8.78999 13.596 10.5C13.596 12.21 12.2098 13.596 10.5 13.596ZM13.7184 8.00509C13.3188 8.00509 12.9949 7.68113 12.9949 7.28155C12.9949 6.88197 13.3188 6.55801 13.7184 6.55801C14.118 6.55801 14.442 6.88197 14.442 7.28155C14.4418 7.68113 14.118 8.00509 13.7184 8.00509Z" fill="white"/>
<path d="M10.5 0C4.7019 0 0 4.7019 0 10.5C0 16.2981 4.7019 21 10.5 21C16.2981 21 21 16.2981 21 10.5C21 4.7019 16.2981 0 10.5 0ZM16.4929 12.9858C16.4638 13.6276 16.3617 14.0658 16.2127 14.4494C15.8995 15.2593 15.2593 15.8995 14.4494 16.2127C14.066 16.3617 13.6276 16.4636 12.9859 16.4929C12.343 16.5222 12.1376 16.5293 10.5002 16.5293C8.86258 16.5293 8.65734 16.5222 8.01423 16.4929C7.37256 16.4636 6.9342 16.3617 6.5508 16.2127C6.14834 16.0613 5.784 15.824 5.4828 15.5172C5.17614 15.2162 4.93886 14.8517 4.78745 14.4494C4.63845 14.066 4.53639 13.6276 4.50723 12.9859C4.47759 12.3428 4.4707 12.1374 4.4707 10.5C4.4707 8.86258 4.47759 8.65718 4.50707 8.01423C4.53623 7.3724 4.63813 6.9342 4.78713 6.55064C4.93854 6.14834 5.17598 5.78384 5.4828 5.4828C5.78384 5.17598 6.14834 4.9387 6.55064 4.78729C6.9342 4.63829 7.3724 4.53639 8.01423 4.50707C8.65718 4.47775 8.86258 4.4707 10.5 4.4707C12.1374 4.4707 12.3428 4.47775 12.9858 4.50723C13.6276 4.53639 14.0658 4.63829 14.4494 4.78713C14.8517 4.93854 15.2162 5.17598 15.5174 5.4828C15.824 5.784 16.0615 6.14834 16.2127 6.55064C16.3619 6.9342 16.4638 7.3724 16.4931 8.01423C16.5224 8.65718 16.5293 8.86258 16.5293 10.5C16.5293 12.1374 16.5224 12.3428 16.4929 12.9858Z" fill="white"/>
</svg>
