<svg width="21" height="21" viewBox="0 0 21 21" fill="none" xmlns="http://www.w3.org/2000/svg">
<path d="M12.193 20.8633C12.1055 20.8777 12.0177 20.8909 11.9296 20.903C12.0177 20.8909 12.1055 20.8777 12.193 20.8633Z" fill="#F6821F"/>
<path d="M12.403 20.8275C12.3612 20.8355 12.3194 20.8428 12.2776 20.8503C12.3194 20.8428 12.3612 20.8355 12.403 20.8275Z" fill="#F6821F"/>
<path d="M11.6951 20.9319C11.5927 20.9435 11.4897 20.9538 11.3864 20.9625C11.4897 20.9538 11.5927 20.9435 11.6951 20.9319Z" fill="#F6821F"/>
<path d="M11.8968 20.9072C11.8476 20.9141 11.7981 20.9204 11.7487 20.9264C11.7981 20.9204 11.8476 20.9141 11.8968 20.9072Z" fill="#F6821F"/>
<path d="M12.6889 20.7707C12.652 20.7789 12.615 20.7871 12.578 20.7949C12.615 20.7871 12.652 20.7789 12.6889 20.7707Z" fill="#F6821F"/>
<path d="M13.3984 20.5945C13.3686 20.6033 13.3388 20.6117 13.309 20.6204C13.3388 20.6117 13.3686 20.6033 13.3984 20.5945Z" fill="#F6821F"/>
<path d="M13.1838 20.6531C13.1514 20.662 13.1189 20.671 13.0864 20.6795C13.1189 20.671 13.1514 20.6622 13.1838 20.6531Z" fill="#F6821F"/>
<path d="M12.9031 20.7233C12.8688 20.7316 12.8342 20.7395 12.7996 20.7475C12.8342 20.7395 12.8688 20.7316 12.9031 20.7233Z" fill="#F6821F"/>
<path d="M11.383 20.9627C11.3277 20.9674 11.2724 20.9716 11.217 20.9754C11.2724 20.9716 11.3277 20.9674 11.383 20.9627Z" fill="#F6821F"/>
<path d="M21 10.5C21 4.7019 16.2981 0 10.5 0C4.7019 0 0 4.7019 0 10.5C0 16.2981 4.7019 21 10.5 21C10.5617 21 10.623 20.9987 10.6846 20.9976V12.8238H8.42871V10.1948H10.6846V8.26016C10.6846 6.01648 12.0543 4.7953 14.0557 4.7953C15.0141 4.7953 15.838 4.86676 16.0781 4.89864V7.24358H14.698C13.6092 7.24358 13.3983 7.76109 13.3983 8.52036V10.1948H16.0019L15.6625 12.8238H13.3983V20.5943C17.7872 19.3361 21 15.2927 21 10.5Z" fill="white"/>
<path d="M11.1937 20.9766C11.0844 20.9839 10.9747 20.9897 10.8646 20.9935C10.9747 20.9897 11.0844 20.9839 11.1937 20.9766Z" fill="#F6821F"/>
<path d="M10.8591 20.9933C10.8011 20.9952 10.7429 20.9967 10.6848 20.9976C10.7429 20.9967 10.8011 20.9952 10.8591 20.9933Z" fill="#F6821F"/>
</svg>
