<svg width="17" height="17" viewBox="0 0 17 17" fill="none" xmlns="http://www.w3.org/2000/svg">
<path d="M10.0035 8.49982L16.6885 1.81478C17.1038 1.3998 17.1038 0.726481 16.6885 0.311501C16.2732 -0.103834 15.6005 -0.103834 15.1852 0.311501L8.50018 6.99654L1.81478 0.311501C1.39945 -0.103834 0.726835 -0.103834 0.311501 0.311501C-0.103834 0.726481 -0.103834 1.3998 0.311501 1.81478L6.99689 8.49982L0.311501 15.1849C-0.103834 15.5998 -0.103834 16.2732 0.311501 16.6881C0.519168 16.8955 0.791332 16.9993 1.06314 16.9993C1.33495 16.9993 1.60712 16.8955 1.81478 16.6878L8.50018 10.0028L15.1852 16.6878C15.3929 16.8955 15.665 16.9993 15.9369 16.9993C16.2087 16.9993 16.4808 16.8955 16.6885 16.6878C17.1038 16.2728 17.1038 15.5995 16.6885 15.1845L10.0035 8.49982Z" fill="#F6821F"/>
</svg>
