<svg width="41" height="41" viewBox="0 0 41 41" fill="none" xmlns="http://www.w3.org/2000/svg">
<g filter="url(#filter0_d)">
<path fill-rule="evenodd" clip-rule="evenodd" d="M19.4028 27.2216L29.1579 17.4665C29.4301 17.1942 29.5663 16.872 29.5663 16.4998C29.5663 16.1276 29.4301 15.8054 29.1579 15.5331L19.4028 5.77802C19.1305 5.50575 18.8083 5.36961 18.4361 5.36961C18.0639 5.36961 17.7417 5.50575 17.4694 5.77802L15.2775 7.96995C15.0052 8.24223 14.8691 8.56446 14.8691 8.93666C14.8691 9.30886 15.0052 9.63109 15.2775 9.90337L21.8739 16.4998L15.2775 23.0962C15.0052 23.3685 14.8691 23.6907 14.8691 24.0629C14.8691 24.4351 15.0052 24.7574 15.2775 25.0296L17.4694 27.2216C17.7417 27.4938 18.0639 27.63 18.4361 27.63C18.8083 27.63 19.1305 27.4938 19.4028 27.2216ZM37 16.5C37 19.4941 36.2625 22.2549 34.7874 24.7823C33.3124 27.3098 31.3107 29.3115 28.7823 30.7874C26.2539 32.2634 23.4932 33.0009 20.5 33C17.5068 32.9991 14.7461 32.2616 12.2177 30.7874C9.68931 29.3133 7.6876 27.3116 6.21256 24.7823C4.73752 22.253 4 19.4923 4 16.5C4 13.5078 4.73752 10.747 6.21256 8.21769C7.6876 5.68839 9.68931 3.68668 12.2177 2.21256C14.7461 0.738437 17.5068 0.000917597 20.5 8.53578e-07C23.4932 -0.00091589 26.2539 0.736604 28.7823 2.21256C31.3107 3.68852 33.3124 5.69023 34.7874 8.21769C36.2625 10.7451 37 13.5059 37 16.5Z" fill="#979797"/>
</g>
<defs>
<filter id="filter0_d" x="0" y="0" width="41" height="41" filterUnits="userSpaceOnUse" color-interpolation-filters="sRGB">
<feFlood flood-opacity="0" result="BackgroundImageFix"/>
<feColorMatrix in="SourceAlpha" type="matrix" values="0 0 0 0 0 0 0 0 0 0 0 0 0 0 0 0 0 0 127 0"/>
<feOffset dy="4"/>
<feGaussianBlur stdDeviation="2"/>
<feColorMatrix type="matrix" values="0 0 0 0 0 0 0 0 0 0 0 0 0 0 0 0 0 0 0.1 0"/>
<feBlend mode="normal" in2="BackgroundImageFix" result="effect1_dropShadow"/>
<feBlend mode="normal" in="SourceGraphic" in2="effect1_dropShadow" result="shape"/>
</filter>
</defs>
</svg>
