<svg width="41" height="41" viewBox="0 0 41 41" fill="none" xmlns="http://www.w3.org/2000/svg">
<g filter="url(#filter0_d)">
<path fill-rule="evenodd" clip-rule="evenodd" d="M21.5972 5.77844L11.8421 15.5335C11.5698 15.8058 11.4337 16.128 11.4337 16.5002C11.4337 16.8724 11.5698 17.1946 11.8421 17.4669L21.5972 27.222C21.8695 27.4943 22.1917 27.6304 22.5639 27.6304C22.9361 27.6304 23.2583 27.4943 23.5306 27.222L25.7225 25.03C25.9948 24.7578 26.1309 24.4355 26.1309 24.0633C26.1309 23.6911 25.9948 23.3689 25.7225 23.0966L19.1261 16.5002L25.7225 9.90378C25.9948 9.63151 26.1309 9.30928 26.1309 8.93708C26.1309 8.56488 25.9948 8.24265 25.7225 7.97037L23.5306 5.77844C23.2583 5.50617 22.9361 5.37003 22.5639 5.37003C22.1917 5.37003 21.8695 5.50617 21.5972 5.77844ZM4 16.5C4 13.5059 4.73752 10.7451 6.21256 8.21769C7.6876 5.69022 9.6893 3.68851 12.2177 2.21256C14.7461 0.736603 17.5068 -0.000915527 20.5 0C23.4932 0.000915527 26.2539 0.738434 28.7823 2.21256C31.3107 3.68668 33.3124 5.68839 34.7874 8.21769C36.2625 10.747 37 13.5077 37 16.5C37 19.4922 36.2625 22.253 34.7874 24.7823C33.3124 27.3116 31.3107 29.3133 28.7823 30.7874C26.2539 32.2616 23.4932 32.9991 20.5 33C17.5068 33.0009 14.7461 32.2634 12.2177 30.7874C9.6893 29.3115 7.6876 27.3098 6.21256 24.7823C4.73752 22.2549 4 19.4941 4 16.5Z" fill="#979797"/>
</g>
<defs>
<filter id="filter0_d" x="0" y="0" width="41" height="41" filterUnits="userSpaceOnUse" color-interpolation-filters="sRGB">
<feFlood flood-opacity="0" result="BackgroundImageFix"/>
<feColorMatrix in="SourceAlpha" type="matrix" values="0 0 0 0 0 0 0 0 0 0 0 0 0 0 0 0 0 0 127 0"/>
<feOffset dy="4"/>
<feGaussianBlur stdDeviation="2"/>
<feColorMatrix type="matrix" values="0 0 0 0 0 0 0 0 0 0 0 0 0 0 0 0 0 0 0.1 0"/>
<feBlend mode="normal" in2="BackgroundImageFix" result="effect1_dropShadow"/>
<feBlend mode="normal" in="SourceGraphic" in2="effect1_dropShadow" result="shape"/>
</filter>
</defs>
</svg>
