<svg width="21" height="21" viewBox="0 0 21 21" fill="none" xmlns="http://www.w3.org/2000/svg">
<path d="M10.5 21C16.299 21 21 16.299 21 10.5C21 4.70101 16.299 0 10.5 0C4.70101 0 0 4.70101 0 10.5C0 16.299 4.70101 21 10.5 21Z" fill="white"/>
<path fill-rule="evenodd" clip-rule="evenodd" d="M10.1033 15.1052H10.9274C10.9274 15.1052 11.1763 15.0778 11.3034 14.9408C11.4204 14.815 11.4166 14.5788 11.4166 14.5788C11.4166 14.5788 11.4006 13.473 11.9138 13.3102C12.4197 13.1498 13.0694 14.3789 13.758 14.8515C14.2787 15.2092 14.6744 15.1308 14.6744 15.1308L16.5156 15.1052C16.5156 15.1052 17.4788 15.0458 17.0221 14.2885C16.9847 14.2266 16.7561 13.7283 15.6531 12.7045C14.4986 11.6329 14.6532 11.8063 16.0439 9.95268C16.8909 8.82385 17.2295 8.13468 17.1237 7.83951C17.0228 7.55837 16.3999 7.63268 16.3999 7.63268L14.3268 7.64559C14.3268 7.64559 14.1731 7.62463 14.0591 7.69276C13.9478 7.75958 13.8761 7.91531 13.8761 7.91531C13.8761 7.91531 13.548 8.78884 13.1104 9.53173C12.1872 11.0993 11.8181 11.182 11.6673 11.0847C11.3163 10.8578 11.4039 10.1734 11.4039 9.68709C11.4039 8.16799 11.6343 7.5346 10.9553 7.37064C10.7299 7.31617 10.5641 7.28023 9.98777 7.27443C9.24807 7.26676 8.62198 7.27668 8.26747 7.45037C8.03164 7.56586 7.8497 7.82322 7.96051 7.83801C8.09752 7.85635 8.40785 7.92167 8.57238 8.14572C8.78482 8.43471 8.77733 9.08383 8.77733 9.08383C8.77733 9.08383 8.89937 10.8721 8.49227 11.0942C8.21282 11.2466 7.82949 10.9355 7.00649 9.51339C6.58479 8.78491 6.26641 7.9797 6.26641 7.9797C6.26641 7.9797 6.20502 7.82921 6.09553 7.74873C5.96263 7.65121 5.77696 7.62014 5.77696 7.62014L3.80697 7.63305C3.80697 7.63305 3.51123 7.64129 3.40267 7.76988C3.30609 7.88424 3.395 8.12083 3.395 8.12083C3.395 8.12083 4.9373 11.7291 6.68362 13.5475C8.28488 15.2147 10.1033 15.1052 10.1033 15.1052Z" fill="#FF8800"/>
</svg>
