<svg width="195" height="252" viewBox="0 0 195 252" fill="none" xmlns="http://www.w3.org/2000/svg">
<mask id="mask0" mask-type="alpha" maskUnits="userSpaceOnUse" x="-41" y="0" width="220" height="252">
<path d="M66.5 1.44337C68.047 0.550211 69.953 0.550212 71.5 1.44338L175.619 61.5566C177.166 62.4498 178.119 64.1004 178.119 65.8867V186.113C178.119 187.9 177.166 189.55 175.619 190.443L71.5 250.557C69.953 251.45 68.047 251.45 66.5 250.557L-37.6192 190.443C-39.1662 189.55 -40.1192 187.9 -40.1192 186.113V65.8867C-40.1192 64.1004 -39.1662 62.4498 -37.6192 61.5566L66.5 1.44337Z" fill="#05A0FF"/>
</mask>
<g mask="url(#mask0)">
<rect x="151" y="17" width="56" height="218" fill="#F6821F"/>
<path fill-rule="evenodd" clip-rule="evenodd" d="M163.776 133.568L157.272 127.065C157.091 126.883 157 126.668 157 126.42C157 126.172 157.091 125.957 157.272 125.776L163.776 119.272C163.957 119.091 164.172 119 164.42 119C164.668 119 164.883 119.091 165.065 119.272L166.526 120.734C166.707 120.915 166.798 121.13 166.798 121.378C166.798 121.626 166.707 121.841 166.526 122.023L162.128 126.42L166.526 130.818C166.707 130.999 166.798 131.214 166.798 131.462C166.798 131.71 166.707 131.925 166.526 132.107L165.065 133.568C164.883 133.749 164.668 133.84 164.42 133.84C164.172 133.84 163.957 133.749 163.776 133.568Z" fill="white" fill-opacity="0.5"/>
</g>
</svg>
