<svg width="18" height="17" viewBox="0 0 18 17" fill="none" xmlns="http://www.w3.org/2000/svg">
<path fill-rule="evenodd" clip-rule="evenodd" d="M9 1.66051C6.05314 1.66181 3.40462 3.28532 2.31439 5.75871C1.22415 8.2321 1.91231 11.056 4.05148 12.8871C6.19066 14.7182 9.34898 15.1867 12.024 14.0699C12.3158 13.9476 12.6576 13.9752 12.9208 14.1424C13.1839 14.3095 13.3283 14.5908 13.2997 14.8802C13.271 15.1697 13.0736 15.4233 12.7818 15.5456C11.5967 16.0415 10.306 16.2977 9 16.2961C4.0293 16.2961 0 12.6559 0 8.16522C0 3.67453 4.0293 0.0343323 9 0.0343323C13.9707 0.0343323 18 3.67453 18 8.16522V8.18067C17.9622 9.96133 17.334 11.1606 16.4097 11.9046C15.5061 12.6315 14.436 12.8299 13.689 12.8299C12.6162 12.8299 11.6739 12.3258 11.1348 11.5664C9.2664 13.0584 6.5718 13.3869 4.9086 11.7168C3.1752 9.97678 3.6585 7.07162 5.508 5.21533C7.2972 3.41922 10.5507 2.72566 12.4182 4.80391C12.5865 4.39532 13.0816 4.17938 13.5405 4.31443C13.9993 4.44948 14.2586 4.88745 14.1282 5.30721C13.5954 6.99518 12.9672 8.66771 12.4965 10.3703C12.6378 10.8609 13.1279 11.2034 13.689 11.2037C14.121 11.2037 14.7222 11.085 15.2127 10.6907C15.6807 10.3142 16.1685 9.58975 16.2 8.1579C16.1955 4.56831 12.9733 1.66051 9 1.66051ZM11.1177 8.90837C11.1807 8.71323 11.3454 8.19204 11.538 7.58466C11.7477 6.91793 11.475 6.27884 10.9008 5.70155C10.0728 4.87138 8.29799 4.84537 6.84629 6.30323C5.38559 7.76842 5.33249 9.71089 6.24689 10.6289C7.07399 11.459 8.84879 11.485 10.3014 10.0272C10.6371 9.69056 10.953 9.34093 11.1177 8.90837Z" fill="#FFD0BB"/>
</svg>
