<svg width="15" height="16" viewBox="0 0 15 16" fill="none" xmlns="http://www.w3.org/2000/svg">
<path d="M14.1429 12.1577C14.1429 12.0874 14.1429 12.0171 14.1127 11.9467C14.0424 11.7358 13.5502 11.5148 13.3493 11.4144C12.7768 11.0929 12.1942 10.7816 11.6317 10.4501C11.3705 10.2894 11.0491 9.98803 10.7377 9.98803C10.125 9.98803 9.23103 11.8061 8.68862 11.8061C8.41741 11.8061 8.06585 11.555 7.82478 11.4144C5.99665 10.3999 4.73103 9.13424 3.71652 7.30611C3.57589 7.06504 3.32478 6.71348 3.32478 6.44227C3.32478 5.89986 5.14286 5.00589 5.14286 4.39317C5.14286 4.08178 4.84152 3.76035 4.6808 3.49919C4.34933 2.93669 4.03795 2.3541 3.71652 1.78156C3.61607 1.58067 3.39509 1.08848 3.18415 1.01817C3.11384 0.988032 3.04353 0.988032 2.97321 0.988032C2.61161 0.988032 1.90848 1.14875 1.57701 1.29942C1.08482 1.51035 0.763393 2.07285 0.512277 2.52486C0.190848 3.1175 0 3.72018 0 4.39317C0 5.32732 0.381696 6.17107 0.69308 7.02486C0.914063 7.63759 1.18527 8.23022 1.52679 8.78268C2.58147 10.4903 4.64062 12.5494 6.34821 13.6041C6.90067 13.9456 7.4933 14.2168 8.10603 14.4378C8.95982 14.7492 9.80357 15.1309 10.7377 15.1309C11.4107 15.1309 12.0134 14.94 12.606 14.6186C13.058 14.3675 13.6205 14.0461 13.8315 13.5539C13.9821 13.2224 14.1429 12.5193 14.1429 12.1577Z" fill="#FFD0BB"/>
</svg>
