<svg width="193" height="252" viewBox="0 0 193 252" fill="none" xmlns="http://www.w3.org/2000/svg">
<mask id="mask0" mask-type="alpha" maskUnits="userSpaceOnUse" x="16" y="0" width="220" height="252">
<path d="M128.5 1.44337C126.953 0.550211 125.047 0.550212 123.5 1.44338L19.3808 61.5566C17.8338 62.4498 16.8808 64.1004 16.8808 65.8867V186.113C16.8808 187.9 17.8338 189.55 19.3808 190.443L123.5 250.557C125.047 251.45 126.953 251.45 128.5 250.557L232.619 190.443C234.166 189.55 235.119 187.9 235.119 186.113V65.8867C235.119 64.1004 234.166 62.4498 232.619 61.5566L128.5 1.44337Z" fill="#05A0FF"/>
</mask>
<g mask="url(#mask0)">
<rect width="98" height="381" transform="matrix(-1 0 0 1 44 -65)" fill="#F6821F"/>
<path fill-rule="evenodd" clip-rule="evenodd" d="M29.0224 131.568L35.5258 125.065C35.7073 124.883 35.798 124.668 35.798 124.42C35.798 124.172 35.7073 123.957 35.5258 123.776L29.0224 117.272C28.8409 117.091 28.626 117 28.3779 117C28.1298 117 27.915 117.091 27.7334 117.272L26.2722 118.734C26.0906 118.915 25.9999 119.13 25.9999 119.378C25.9999 119.626 26.0906 119.841 26.2722 120.023L30.6698 124.42L26.2722 128.818C26.0906 128.999 25.9999 129.214 25.9999 129.462C25.9999 129.71 26.0906 129.925 26.2722 130.107L27.7334 131.568C27.915 131.749 28.1298 131.84 28.3779 131.84C28.626 131.84 28.8409 131.749 29.0224 131.568Z" fill="white" fill-opacity="0.5"/>
</g>
</svg>
