<svg xmlns="http://www.w3.org/2000/svg" viewBox="0 0 21 21"><defs><style>.cls-1{fill:#fff;}</style></defs><title>вкРесурс 1</title><g id="Слой_2" data-name="Слой 2"><g id="Слой_1-2" data-name="Слой 1"><path class="cls-1" d="M10.5,0A10.5,10.5,0,1,0,21,10.5,10.5,10.5,0,0,0,10.5,0Zm6,15.11-1.85,0a1.28,1.28,0,0,1-.91-.28c-.69-.47-1.34-1.7-1.85-1.54s-.49,1.27-.49,1.27a.61.61,0,0,1-.12.36.67.67,0,0,1-.37.17H10.1a4.77,4.77,0,0,1-3.42-1.56A22.52,22.52,0,0,1,3.4,8.12s-.09-.24,0-.35.41-.14.41-.14h2a.87.87,0,0,1,.32.13A.6.6,0,0,1,6.27,8,12,12,0,0,0,7,9.51c.82,1.43,1.2,1.74,1.48,1.58s.29-2,.29-2a2,2,0,0,0-.21-.93A.9.9,0,0,0,8,7.84c-.11,0,.07-.27.31-.39A4.67,4.67,0,0,1,10,7.27a4,4,0,0,1,1,.1c.67.16.44.8.44,2.32,0,.48-.08,1.17.27,1.39.15.1.52,0,1.44-1.55a11.91,11.91,0,0,0,.77-1.61.6.6,0,0,1,.18-.23.43.43,0,0,1,.27,0l2.07,0s.62-.07.72.21S16.89,8.82,16,10c-1.39,1.86-1.54,1.68-.39,2.75A6.16,6.16,0,0,1,17,14.29C17.48,15.05,16.52,15.11,16.52,15.11Z"/></g></g></svg>